<?xml version="1.0" encoding="utf-8"?>
<?xml-stylesheet type="text/xsl" href="rss1.xsl"?>
<rss version="2.0" xmlns:atom="http://www.w3.org/2005/Atom" xmlns:content="http://purl.org/rss/1.0/modules/content/" xmlns:dc="http://purl.org/dc/elements/1.1/" xmlns:media="http://search.yahoo.com/mrss/">
<channel>
 <title>Getty</title>
 <link>http://www.gettyimg.com/</link>
 <atom:link href="http://www.gettyimg.com/" rel="self" type="application/rss+xml" />

 
                <item>
                <title><![CDATA[【HD Live Performances】WEB-RiP - Blur - Coachella 2024 Weekend 1 1080p]]></title>
                <link><![CDATA[https://sharemania.us/threads/blur-coachella-2024-weekend-1-1080p.242290/]]></link>
                <description><![CDATA[<article>
<blockquote class="messageText SelectQuoteContainer ugc baseHtml">
Blur<br>
Coachella Valley Music and Arts Festival, Empire Polo Club, Indio, California, USA<br>
2024-04-13<br>
<b><br>
<img src="https://images2.imgbox.com/a8/9e/sCKi2bAh_o.png" class="bbCodeImage LbImage" alt="[​IMG]" data-url="https://images2.imgbox.com/a8/9e/sCKi2bAh_o.png" style=""> <br>
<br>
Setlist</b><br>
St. Charles Square<br>
Popscene<br>
Trouble in the Message Centre<br>
Beetlebum<br>
Goodbye Albert<br>
Trimm Trabb<br>
Out of Time<br>
Bird Song (traditional song, cover) (with Torres Martinez Cahuilla Bird Singers)<br>
Death of a Party (with Torres Martinez Cahuilla Bird Singers)<br>
Girls &amp; Boys<br>
Song 2<br>
The Narcissist<br>
Tender (with Torres Martinez Cahuilla Bird Singers)<br>
<br>
<div class="ToggleTriggerAnchor bbCodeSpoilerContainer">
<button type="button" class="button bbCodeSpoilerButton ToggleTrigger Tooltip JsOnly" data-target="> .SpoilerTarget"><span>Spoiler: <span class="SpoilerTitle">MediaInfo</span></span></button>
<div class="SpoilerTarget bbCodeSpoilerText">General<br>
Format : MPEG-4<br>
Format profile : Base Media<br>
Codec ID : isom (isom/iso2/avc1/mp41)<br>
File size : 973 MiB<br>
Duration : 1 h 2 min<br>
Overall bit rate : 2 182 kb/s<br>
Frame rate : 30.000 FPS<br>
Writing application : Lavf60.3.100<br>
<br>
Video<br>
ID : 1<br>
Format : AVC<br>
Format/Info : Advanced Video Codec<br>
Format profile : High@L4<br>
Format settings : CABAC / 1 Ref Frames<br>
Format settings, CABAC : Yes<br>
Format settings, Reference frames : 1 frame<br>
Codec ID : avc1<br>
Codec ID/Info : Advanced Video Coding<br>
Duration : 1 h 2 min<br>
Source duration : 1 h 2 min<br>
Bit rate : 2 046 kb/s<br>
Width : 1 920 pixels<br>
Height : 1 080 pixels<br>
Display aspect ratio : 16:9<br>
Frame rate mode : Constant<br>
Frame rate : 30.000 FPS<br>
Color space : YUV<br>
Chroma subsampling : 4:2:0<br>
Bit depth : 8 bits<br>
Scan type : Progressive<br>
Bits/(Pixel*Frame) : 0.033<br>
Stream size : 912 MiB (94%)<br>
Source stream size : 912 MiB (94%)<br>
Color range : Limited<br>
Color primaries : BT.709<br>
Transfer characteristics : BT.709<br>
Matrix coefficients : BT.709<br>
Codec configuration box : avcC<br>
<br>
Audio<br>
ID : 2<br>
Format : AAC LC<br>
Format/Info : Advanced Audio Codec Low Complexity<br>
Codec ID : mp4a-40-2<br>
Duration : 1 h 2 min<br>
Bit rate mode : Constant<br>
Bit rate : 128 kb/s<br>
Channel(s) : 2 channels<br>
Channel layout : L R<br>
Sampling rate : 44.1 kHz<br>
Frame rate : 43.066 FPS (1024 SPF)<br>
Compression mode : Lossy<br>
Stream size : 57.1 MiB (6%)<br>
Default : Yes<br>
Alternate group : 1<br>
</div>
</div><b><br>
<br>
<div class="bbCodeBlock bbCodeVfcHH HiddenContent">
<div class="attribution type">Hidden Content:</div>
<blockquote>You must reply before you can see the hidden data contained here.</blockquote>
</div></b><br>
<br>
<div class="messageTextEndMarker">&nbsp;</div>
</blockquote>
</article>]]></description>
                <author><![CDATA[coolguy789]]></author>
                </item>

                </channel></rss>